<svg viewBox="0 0 1024 1024" xmlns="http://www.w3.org/2000/svg"><defs><style>.cls-1{isolation:isolate;}.cls-2{fill:#d4e2ff;}.cls-3{fill:#2d4c7f;}.cls-4{fill:#203c79;}.cls-5{fill:#ebf3ff;}.cls-20,.cls-21,.cls-6{mix-blend-mode:multiply;}.cls-6{opacity:0.5;}.cls-7{fill:#d9eaff;}.cls-8{fill:#395289;}.cls-9{fill:#5d81ec;}.cls-10{fill:#fff;}.cls-11{fill:#244baa;}.cls-12{fill:#9ec0ff;}.cls-13{fill:#8cb0ea;}.cls-14{fill:#2e6adb;}.cls-15{fill:#406cdb;}.cls-16{fill:#b8d0ff;}.cls-17{fill:#ffcdab;}.cls-18{fill:#ffbf00;}.cls-19{fill:#132444;}.cls-20,.cls-25{opacity:0.4;}.cls-21{opacity:0.3;}.cls-22{fill:#ffa607;}.cls-23{fill:#26395e;}.cls-24{fill:#0093cc;}.cls-26{fill:#f4bd98;}.cls-27{fill:#141d30;}.cls-28{fill:#fa6e61;}.cls-29{fill:#8896a8;}.cls-30{fill:#6c63ff;}.cls-31{fill:#e1edff;}.cls-32{fill:#77a3e8;}.cls-33{fill:#bdd6ff;}.cls-34{fill:#345a91;}.cls-35{fill:#ff9700;}</style></defs><g class="cls-1"><g id="图层_1"><path d="M249.89,168.71c2-2.19,1.8-6.89,1-9.43-2.9-9.25-8.43-16.75-21.42-16.75l-1.35,0c-.1-9.52-8.7-13.72-14.17-16.63-14.41-7.66-34.72-13.81-51.25-9.56C132.46,124.13,126.05,144,124.48,144c-11.75,0-23.8,10.94-23.8,21.14a16.16,16.16,0,0,0,.52,4.07c-.17,0-21,7.46-18.37,24.84,1.92,12.84,8.85,22,31,22H250.79c11.93,0,19.81-13.87,19.81-23.74A23.65,23.65,0,0,0,249.89,168.71Z" class="cls-2"></path><path d="M455.73,776.6v88.86H491.5V831.93a21.24,21.24,0,1,1,42.47,0v33.53h35.77V776.6Z" class="cls-3"></path><rect height="23.47" width="347.63" y="859.88" x="338.92" class="cls-4"></rect><rect height="456.46" width="815.6" y="335.11" x="104.93" class="cls-4"></rect><rect height="394.22" width="764.31" y="351.14" x="130.58" class="cls-5"></rect><g class="cls-6"><path d="M839.48,745.36c-30.28-7.3-59.17-19.09-87.37-32.15s-56.71-26.27-84.57-40.28c-149.46-75.12-282.3-187.06-385.13-319.47H130.58V747.68H849.81C846.36,747,842.91,746.19,839.48,745.36Z" class="cls-7"></path></g><rect height="7.21" width="765.31" y="745.36" x="130.08" class="cls-8"></rect><rect height="228" width="2" y="304" x="504.09" class="cls-4"></rect><path d="M505.09,306a8.48,8.48,0,1,1,8.27-8.47A8.37,8.37,0,0,1,505.09,306Zm0-14.95a6.48,6.48,0,1,0,6.27,6.48A6.38,6.38,0,0,0,505.09,291Z" class="cls-4"></path><rect height="2" width="202.49" y="643.98" x="225.13" class="cls-9"></rect><rect height="2" width="43.33" y="580.23" x="408.27" class="cls-4"></rect><rect height="2" width="32.45" y="577.91" x="618.3" class="cls-4"></rect><path d="M215.8,653.25c-5.7,0-10.34-3.71-10.34-8.27s4.64-8.26,10.34-8.26,10.33,3.71,10.33,8.26S221.5,653.25,215.8,653.25Zm0-14.53c-4.6,0-8.34,2.81-8.34,6.26s3.74,6.27,8.34,6.27,8.33-2.81,8.33-6.27S220.39,638.72,215.8,638.72Z" class="cls-9"></path><rect height="2" width="187.15" y="643.98" x="614.6" class="cls-9"></rect><path d="M810.38,653.25c-5.31,0-9.63-3.71-9.63-8.27s4.32-8.26,9.63-8.26S820,640.43,820,645,815.68,653.25,810.38,653.25Zm0-14.53c-4.21,0-7.63,2.81-7.63,6.26s3.42,6.27,7.63,6.27S818,648.44,818,645,814.58,638.72,810.38,638.72Z" class="cls-9"></path><polygon points="410.34 580.43 408.34 580.43 408.34 483.63 363.51 483.63 363.51 481.63 410.34 481.63 410.34 580.43" class="cls-4"></polygon><path d="M357.54,490.89a8.27,8.27,0,1,1,8.27-8.27A8.28,8.28,0,0,1,357.54,490.89Zm0-14.53a6.27,6.27,0,1,0,6.27,6.26A6.27,6.27,0,0,0,357.54,476.36Z" class="cls-4"></path><polygon points="651.15 580.42 649.15 580.42 649.15 424.61 731.6 424.61 731.6 426.61 651.15 426.61 651.15 580.42" class="cls-4"></polygon><path d="M737.52,434.43a8.27,8.27,0,1,1,8.27-8.26A8.26,8.26,0,0,1,737.52,434.43Zm0-14.53a6.27,6.27,0,1,0,6.27,6.27A6.27,6.27,0,0,0,737.52,419.9Z" class="cls-4"></path><rect height="171.23" width="230.38" y="105.92" x="382.62" class="cls-10"></rect><rect height="39.44" width="230.39" y="99.02" x="382.62" class="cls-11"></rect><path d="M407.77,116.32a5.54,5.54,0,1,1-5.54-5.54A5.53,5.53,0,0,1,407.77,116.32Z" class="cls-10"></path><path d="M435.44,116.32a5.54,5.54,0,1,1-5.53-5.54A5.53,5.53,0,0,1,435.44,116.32Z" class="cls-10"></path><path d="M463.12,116.32a5.54,5.54,0,1,1-5.54-5.54A5.53,5.53,0,0,1,463.12,116.32Z" class="cls-10"></path><rect height="53.69" width="25.65" y="209.31" x="416.76" class="cls-12"></rect><rect height="81.31" width="26.45" y="181.68" x="455.24" class="cls-13"></rect><rect height="100.6" width="28.86" y="162.4" x="500.13" class="cls-14"></rect><rect height="116.23" width="35.27" y="146.76" x="548.23" class="cls-9"></rect><rect height="112.08" width="1" y="150.91" x="400.35" class="cls-9"></rect><rect height="1" width="184.73" y="262.49" x="400.85" class="cls-9"></rect><g class="cls-6"><path d="M580.73,273.68c-23.62-11.29-44.68-30.19-62.75-48.86-34.54-35.7-66.44-76.15-76.61-125.82H382.62V277.15H589.35A77.21,77.21,0,0,1,580.73,273.68Z" class="cls-12"></path></g><path d="M301.7,315a46.36,46.36,0,1,1-52.35-39.46A46.35,46.35,0,0,1,301.7,315Z" class="cls-4"></path><path d="M289.67,336.67c-13-1.2-25.93-7.13-36.23-15-11.69-9-24.63-24.65-22.32-39.39a46.36,46.36,0,1,0,69.2,52.15C296.86,335.87,293.16,337,289.67,336.67Z" class="cls-15"></path><polygon points="254.37 319.49 277.73 375.1 310.13 341.92 254.37 319.49" class="cls-10"></polygon><path d="M255.77,356.76a35.32,35.32,0,1,1,4.93-.35A34.36,34.36,0,0,1,255.77,356.76Zm.1-69.55a34.27,34.27,0,1,0,33.86,29.51h0a34.29,34.29,0,0,0-33.86-29.51Z" class="cls-10"></path><rect height="93.84" width="147.74" y="607.03" x="859.6" class="cls-10"></rect><path d="M935.26,658.83l-75.94-51.39a.5.5,0,0,1,.56-.82l75.36,51,71.82-51a.5.5,0,0,1,.58.82Z" class="cls-9"></path><g class="cls-6"><path d="M914.14,607H859.6v93.84h147.75V683.48C968.28,675.34,932.76,640.65,914.14,607Z" class="cls-12"></path></g><path d="M865.73,925.66c-.14,10.53-34.41,18.6-76.53,18s-76.16-9.59-76-20.12,34.41-18.6,76.54-18S865.87,915.13,865.73,925.66Z" class="cls-16"></path><path d="M789,533.75a644.47,644.47,0,0,1-55.33,42.35,306.8,306.8,0,0,1-21.56-46.68l-12.53,6.39a166.45,166.45,0,0,0,14.79,48.91c2.15,4.46,4.67,9,8.77,11.56,8.14,5,18.39.23,26.67-4.56l26.56-15.36a12.42,12.42,0,0,0,3.69-2.82c1.43-1.79,1.82-4.22,2.16-6.53,1.6-10.7,3.2-21.4,6.78-33.26" class="cls-17"></path><path d="M791.05,531A142.84,142.84,0,0,0,756,557.15c-1.11,1.13-2.28,2.44-2.31,4a6.51,6.51,0,0,0,1,3.09L764.4,583a1.81,1.81,0,0,0,2.8,1c10.3-3.87,21.28-8.26,27.34-17.44,3.83-5.79,5.21-12.84,5.94-19.73.43-4.05.61-8.41-1.49-11.91s-7.3-5.36-7.94-3.93" class="cls-18"></path><path d="M714.2,535c-1.19-4.32-2.68-10.73-1.83-14.27.57-2.37,1-6.7,0-8.81-.26-.54-1-1.07-1.58-.68a1.33,1.33,0,0,0-.43,1.22c0,1.7-1.58,8.42-1.49,6.85a49.31,49.31,0,0,1-4.53-11,5.41,5.41,0,0,0-.94-2.12c-.53-.6-1.77-1.32-2.36-.66-.75.84,1.69,7.72,2.54,11.58l-3.89-9.12c-.31-.75-1.26-1.65-2-1-1,.84,1.84,8.08,2.76,12.12l-4-8.5c-.54-1.14-2.16-3-2.6-1.71-.8,2.32,2.16,8,3.63,12.22q-1.54-2.56-3.11-5.13c-.34-.56-1.17-1.16-1.73-.64a1,1,0,0,0-.16,1c1.69,7.38,4.33,12.89,7.27,20.81,4.09-2.33,10.92,1.21,14.43-2.1" class="cls-17"></path><path d="M747.29,899.75c-4.44,6.79-13.2,9-18.8,14.8a3.57,3.57,0,0,0-.94,1.43,2.62,2.62,0,0,0,1.75,2.92,7.19,7.19,0,0,0,3.63.07l20.51-3.11a5.73,5.73,0,0,0,2.15-.62c1.4-.85,1.85-2.68,2.18-4.31q1.5-7.38,3-14.76a51.67,51.67,0,0,0-13.47,3.58" class="cls-19"></path><path d="M763.45,907.91l1.9,0c6.87-36.61-.82-76.8,9-113,3-11.21,7.68-21.77,11.83-32.52a386.72,386.72,0,0,0,24.66-109.9c-13.63-3.26-27.26-6.53-40.57-12.82-24.76,84.81-32.5,174.84-32.85,264.32a132.2,132.2,0,0,0,26.06,4" class="cls-9"></path><g class="cls-20"><path d="M792.36,705.05c-10.75,17.54-16.5,38.11-22.91,57.73-15.37,47-15.16,97.64-14.26,144.42,2.75.31,5.5.57,8.26.71l1.9,0c6.87-36.61-.82-76.8,9-113,3-11.21,7.68-21.77,11.83-32.52a382.93,382.93,0,0,0,19.54-69.91A32.29,32.29,0,0,0,792.36,705.05Z" class="cls-9"></path></g><path d="M847.74,917.56c-4.44,6.79-13.21,9-18.8,14.81a3.47,3.47,0,0,0-.94,1.42,2.63,2.63,0,0,0,1.75,2.92,7.19,7.19,0,0,0,3.63.08l20.51-3.12a5.73,5.73,0,0,0,2.15-.62c1.39-.85,1.85-2.67,2.18-4.31q1.5-7.38,3-14.76a52,52,0,0,0-13.47,3.58" class="cls-19"></path><path d="M785.47,646.15c4.29,18,18.55,99.47,21.23,111.23,2.22,9.69,6.33,18.78,9.59,28.14,2.88,8.26,5.11,16.74,7.26,25.23,9,35.56,16.74,71.62,19.39,108.27a73.61,73.61,0,0,1,23.77-1.3c4.39-41.26,6.28-83.34-1.76-124-3.59-18.17-9.14-36-11.27-54.36-2.61-22.54,0-45.62-4.33-67.88a14,14,0,0,0-2.26-6.05c-1.75-2.23-4.57-3.17-7.23-4-18-5.54-36.2-10.62-54.39-15.29" class="cls-9"></path><path d="M852.9,913.55l-.49-.07c4.61-35.48,9.38-72.17,2.78-108.08-2.16-11.75-5.58-23.43-8.88-34.72-2.87-9.79-5.83-19.91-8-30-5.3-25.15-5.75-51.2-6.19-76.39h.5c.44,25.17.89,51.19,6.18,76.29,2.13,10.13,5.09,20.24,8,30,3.3,11.3,6.72,23,8.89,34.77C862.3,841.3,857.52,878,852.9,913.55Z" class="cls-19"></path><g class="cls-21"><path d="M853.68,739.35c-2.28-19.67-.62-39.75-3-59.33-7,15.65-8.95,31.63-7,49.31,3.24,29.06,13.44,56.77,16.13,85.92,2.06,22.43,3.28,45.58.44,68-1.43,11.39-4.09,31.55-17.38,35l.06.75a73.61,73.61,0,0,1,23.77-1.3c4.39-41.26,6.28-83.34-1.76-124C861.36,775.54,855.81,757.76,853.68,739.35Z" class="cls-9"></path></g><path d="M792.63,531.2c8.34-4.53,17.93-.43,27.3,1.14,15.25,2.56,31.09,5.35,43.71,14.29A8.66,8.66,0,0,1,868,555c1.14,22.93-13.28,43.76-16.5,66.49-1,6.95-.91,14-.84,21q.15,12.82.29,25.65-40.75-12-82-22.08c2.06-35.72,10.67-70.69,19.23-105.42,1.07-4.35,3.16-8.65,4.55-9.41" class="cls-18"></path><path d="M868,555a8.66,8.66,0,0,0-4.31-8.32c-1.32-.93-2.67-1.78-4.06-2.59a70.68,70.68,0,0,0-8.53,8.33c-4.67,5.39-7.82,11.83-10.32,18.46-5.1,13.5-7.5,27.83-12.1,41.48a33.13,33.13,0,0,1-4.17,9.06,9.73,9.73,0,0,1-8.25,4.3c-3.47-.24-6.58-2.12-9.2-4.28a76.11,76.11,0,0,1-8-7.53c-2.52-2.8-4.71-5.83-7.06-8.76-1.08-1.35-2.43-2.42-3.44-3.87a32.17,32.17,0,0,1-2.35-4.65c-1.67-3.47-2.12-7.53-2.48-11.32a73.81,73.81,0,0,1,0-12.17,196.53,196.53,0,0,1,3.15-23.29c1.33-6.78,3.31-13.48,7.22-19.25-.47.2-.93.41-1.39.65-1.39.76-3.48,5.06-4.55,9.41-8.56,34.73-17.17,69.7-19.23,105.42q41.28,10,82,22.08l-.29-25.65c-.07-7-.15-14.07.84-21,3.22-22.73,17.64-43.56,16.5-66.49" class="cls-22"></path><path d="M816.74,615c-8.39-6.59-13.56-13.2-15.81-20.21a56,56,0,0,1-2-11.39c-.44-4.15-.89-8.44-2.36-12.39l.47-.17c1.49,4,2,8.33,2.38,12.51a56.12,56.12,0,0,0,2,11.28c2.21,6.92,7.33,13.45,15.64,20Z" class="cls-23"></path><path d="M821.73,594.29c-5.43-3.57-9.63-9.79-11.82-17.52-2-6.93-2.26-14.22-2.53-21.27l.5,0c.27,7,.56,14.28,2.51,21.15,2.16,7.62,6.29,13.74,11.62,17.24Z" class="cls-23"></path><path d="M809.33,666.67a13,13,0,0,1-5.46,17.58h0a13,13,0,0,1-17.58-5.45L695.12,505.71a13,13,0,0,1,5.45-17.58h0a13,13,0,0,1,17.58,5.44Z" class="cls-23"></path><path d="M701.37,540.16,778,685.57a23.53,23.53,0,1,0,41.63-21.93L743,518.23Z" class="cls-3"></path><g class="cls-21"><path d="M821.86,675.51a23.54,23.54,0,0,1-31.79-9.85l-71-134.81-17.69,9.31L778,685.57a23.52,23.52,0,0,0,44.33-10.33Z" class="cls-24"></path></g><path d="M754.83,393.75a89.11,89.11,0,1,1-121.78-32.43A89.11,89.11,0,0,1,754.83,393.75Z" class="cls-10"></path><path d="M744,400a76.59,76.59,0,1,1-104.67-27.87A76.59,76.59,0,0,1,744,400Z" class="cls-3"></path><path d="M739.5,402.4a71.69,71.69,0,1,1-98-26.09A71.7,71.7,0,0,1,739.5,402.4Z" class="cls-16"></path><g class="cls-25"><path d="M626.51,411.91a110.07,110.07,0,0,1-7.33-15.23,72,72,0,1,0,128.46,59.2C705.8,475.93,652.74,457.17,626.51,411.91Z" class="cls-10"></path></g><path d="M639.94,440.56l3.28.84a5,5,0,0,1,3.79,4.38,43.81,43.81,0,0,0,.69,4.73,4.87,4.87,0,0,1-2.37,5.23l-2.92,1.67a4.39,4.39,0,0,0-1.6,6.11l5.54,9.17a4.63,4.63,0,0,0,6.26,1.6l2.91-1.67a5.17,5.17,0,0,1,5.86.51,43.88,43.88,0,0,0,3.91,2.89,4.9,4.9,0,0,1,2.09,5.35l-.84,3.2a4.48,4.48,0,0,0,3.3,5.44l10.54,2.7a4.56,4.56,0,0,0,5.56-3.19l.84-3.21a5,5,0,0,1,4.48-3.68,40.94,40.94,0,0,0,4.83-.66,5.15,5.15,0,0,1,5.36,2.36l1.73,2.85a4.65,4.65,0,0,0,6.26,1.6l9.37-5.38a4.39,4.39,0,0,0,1.6-6.11l-1.72-2.85a4.82,4.82,0,0,1,.48-5.71,38.9,38.9,0,0,0,2.93-3.81,5.09,5.09,0,0,1,5.47-2l3.28.83a4.55,4.55,0,0,0,5.56-3.19l2.7-10.29a4.47,4.47,0,0,0-3.29-5.45l-3.28-.83a5,5,0,0,1-3.78-4.39,41.14,41.14,0,0,0-.7-4.73,4.88,4.88,0,0,1,2.39-5.23l2.91-1.67a4.39,4.39,0,0,0,1.6-6.11l-5.54-9.18a4.63,4.63,0,0,0-6.26-1.59l-2.91,1.67a5.17,5.17,0,0,1-5.86-.51,41.77,41.77,0,0,0-3.9-2.88,4.89,4.89,0,0,1-2.1-5.36l.83-3.2a4.46,4.46,0,0,0-3.29-5.44l-10.54-2.69a4.54,4.54,0,0,0-5.56,3.19l-.84,3.2a5,5,0,0,1-4.47,3.68,41.11,41.11,0,0,0-4.84.66,5.15,5.15,0,0,1-5.37-2.36l-1.72-2.85a4.63,4.63,0,0,0-6.26-1.6L657,402a4.4,4.4,0,0,0-1.6,6.1l1.73,2.86a4.85,4.85,0,0,1-.5,5.71,42.13,42.13,0,0,0-2.93,3.8,5.06,5.06,0,0,1-5.46,2l-3.29-.84a4.55,4.55,0,0,0-5.56,3.19l-2.7,10.3A4.47,4.47,0,0,0,639.94,440.56Zm23.5-2.08c2.62-14.75,18-23.58,32.52-18.67a24.39,24.39,0,0,1,16.37,27.08c-2.63,14.73-18,23.57-32.53,18.65A24.39,24.39,0,0,1,663.44,438.48Z" class="cls-4"></path><path d="M616.83,433.16l2.83.72a4.31,4.31,0,0,1,3.26,3.78,32.28,32.28,0,0,0,.59,4.06,4.21,4.21,0,0,1-2,4.51L619,447.66a3.79,3.79,0,0,0-1.37,5.27l4.76,7.9a4,4,0,0,0,5.39,1.37l2.51-1.43a4.48,4.48,0,0,1,5,.43,37.92,37.92,0,0,0,3.36,2.49,4.22,4.22,0,0,1,1.8,4.61l-.72,2.76a3.85,3.85,0,0,0,2.84,4.68l9.08,2.32a3.91,3.91,0,0,0,4.78-2.75l.73-2.76a4.28,4.28,0,0,1,3.86-3.16,38,38,0,0,0,4.15-.57,4.44,4.44,0,0,1,4.63,2l1.48,2.45a4,4,0,0,0,5.38,1.37l8.08-4.62a3.81,3.81,0,0,0,1.38-5.27l-1.49-2.45a4.17,4.17,0,0,1,.41-4.92,33.65,33.65,0,0,0,2.53-3.28,4.38,4.38,0,0,1,4.71-1.74l2.83.72a3.91,3.91,0,0,0,4.78-2.74l2.33-8.86a3.86,3.86,0,0,0-2.84-4.7l-2.82-.72a4.3,4.3,0,0,1-3.26-3.78,32.73,32.73,0,0,0-.6-4.07,4.21,4.21,0,0,1,2.06-4.5l2.51-1.44a3.77,3.77,0,0,0,1.37-5.26l-4.77-7.9a4,4,0,0,0-5.39-1.38L686,409.21a4.44,4.44,0,0,1-5-.44,33.09,33.09,0,0,0-3.36-2.48,4.24,4.24,0,0,1-1.81-4.62l.72-2.75a3.85,3.85,0,0,0-2.83-4.69l-9.08-2.32a3.91,3.91,0,0,0-4.78,2.75l-.73,2.75a4.31,4.31,0,0,1-3.85,3.18,37.84,37.84,0,0,0-4.16.56,4.43,4.43,0,0,1-4.63-2l-1.48-2.45a4,4,0,0,0-5.39-1.38l-8.07,4.63a3.8,3.8,0,0,0-1.38,5.26l1.49,2.46a4.17,4.17,0,0,1-.43,4.92,35.06,35.06,0,0,0-2.52,3.27,4.37,4.37,0,0,1-4.71,1.75l-2.83-.72a3.91,3.91,0,0,0-4.78,2.75L614,428.47A3.85,3.85,0,0,0,616.83,433.16Z" class="cls-9"></path><path d="M635.1,433.93l1.58.41a2.38,2.38,0,0,1,1.81,2.11,18.93,18.93,0,0,0,.33,2.26,2.34,2.34,0,0,1-1.15,2.51l-1.4.8a2.11,2.11,0,0,0-.77,2.93l2.65,4.41a2.24,2.24,0,0,0,3,.77l1.39-.8a2.5,2.5,0,0,1,2.82.25c.59.49,1.22.95,1.87,1.39a2.36,2.36,0,0,1,1,2.57l-.4,1.53a2.15,2.15,0,0,0,1.57,2.62l5.06,1.3a2.2,2.2,0,0,0,2.67-1.53l.41-1.54a2.38,2.38,0,0,1,2.15-1.76,20.19,20.19,0,0,0,2.32-.31,2.46,2.46,0,0,1,2.57,1.13l.83,1.37a2.22,2.22,0,0,0,3,.77l4.5-2.58a2.11,2.11,0,0,0,.77-2.93l-.82-1.36a2.34,2.34,0,0,1,.23-2.75,19.2,19.2,0,0,0,1.41-1.82,2.46,2.46,0,0,1,2.63-1l1.57.41a2.18,2.18,0,0,0,2.67-1.53l1.31-4.93a2.16,2.16,0,0,0-1.58-2.62l-1.57-.41a2.42,2.42,0,0,1-1.82-2.11,17.09,17.09,0,0,0-.33-2.26,2.35,2.35,0,0,1,1.15-2.51l1.4-.8a2.12,2.12,0,0,0,.78-2.93l-2.66-4.41a2.22,2.22,0,0,0-3-.77l-1.4.8a2.48,2.48,0,0,1-2.81-.25A19.6,19.6,0,0,0,669,419a2.38,2.38,0,0,1-1-2.58l.41-1.53a2.15,2.15,0,0,0-1.58-2.62L661.74,411a2.19,2.19,0,0,0-2.67,1.52l-.4,1.54a2.41,2.41,0,0,1-2.15,1.76,22.3,22.3,0,0,0-2.32.31,2.45,2.45,0,0,1-2.57-1.13l-.83-1.37a2.21,2.21,0,0,0-3-.77l-4.5,2.57a2.11,2.11,0,0,0-.77,2.93l.82,1.37a2.32,2.32,0,0,1-.24,2.74,21.16,21.16,0,0,0-1.41,1.83,2.45,2.45,0,0,1-2.63,1l-1.57-.41a2.19,2.19,0,0,0-2.67,1.53l-1.3,4.94A2.13,2.13,0,0,0,635.1,433.93Zm11.28-1A11.87,11.87,0,0,1,662,424a11.7,11.7,0,0,1,7.83,13A11.86,11.86,0,0,1,654.21,446,11.7,11.7,0,0,1,646.38,433Z" class="cls-10"></path><path d="M861.65,555.34c-10.38,6.11-14.31,17.68-16.7,28.44a224.43,224.43,0,0,0-4.65,30.87c-.16,2.13-.33,4.36-1.59,6.18-3,4.45-10.31,4.26-16.22,3.83-14.41-1.06-28,3.32-43.14,2.21a20.53,20.53,0,0,1,2.49,12.32c20.26,3.42,41,6.86,61.38,4.33,5.65-.7,11.36-1.91,16.11-4.66,10.33-6,13.81-17.67,15.74-28.38a231.73,231.73,0,0,0,3.6-34.63c.15-5.42,0-11.21-3.53-15.68s-11.25-6.15-13.49-4.83" class="cls-17"></path><path d="M864.4,547.23c-6.13,1.39-10,7-12.82,12.35a100.38,100.38,0,0,0-11.29,44.22,269.5,269.5,0,0,1,35.49,1q3.35-13.65,5.35-27.54c.71-4.88,1.28-9.92-.15-14.65a26.85,26.85,0,0,0-4.57-8.35c-3.53-4.63-8.69-7.79-12-7" class="cls-18"></path><path d="M782.17,627c-4.84-.41-7-.76-10.28-2.63-2.18-1.26-6.38-3.06-8.89-2.92-.65,0-1.47.47-1.31,1.1.12.45.64.62,1.08.76,1.71.56,7.89,4.08,6.34,3.5a65.71,65.71,0,0,1-12.93.18,6.61,6.61,0,0,0-2.51.09c-.81.25-2,1-1.59,1.76.56.9,8.47,1.11,12.7,1.66l-10.74.27c-.87,0-2.15.52-1.79,1.32.48,1.07,8.88,1.1,13.33,1.65l-10.17.62c-1.36.08-3.86.84-2.74,1.62,2,1.44,8.9.8,13.76,1l-6.39.92c-.7.11-1.64.61-1.32,1.25.16.33.59.41.95.46,8.12,1,15.28-.13,24.43,0-.76-4.19,0-8.53-1.93-12.56" class="cls-17"></path><path d="M823.85,523a35.52,35.52,0,0,1-5.61,14.77c3.1,3.08,7.94,3.64,12.37,3.72a23.24,23.24,0,0,0,6.51-.57,1.32,1.32,0,0,0,.65-.31,1.35,1.35,0,0,0,.26-.68q2.44-14.07,4.47-28.19c-4.48.78-9.13-.64-13.65-.05a2.69,2.69,0,0,0-1.24.38,2.79,2.79,0,0,0-.91,1.27,37,37,0,0,0-2.85,9.66" class="cls-17"></path><path d="M835.46,526.1c3.8-4,4.42-9.68,7-14.35-4.48.78-9.12-.64-13.64-.05a2.65,2.65,0,0,0-1.24.38,2.79,2.79,0,0,0-.91,1.27,37,37,0,0,0-2.85,9.66,35.27,35.27,0,0,1-2.3,8.48,18.09,18.09,0,0,0,13.91-5.39" class="cls-26"></path><path d="M821.85,498.28c-1.46,3.05-2,6.42-3.36,9.51-1.81,4.24-5.06,8.44-4,12.91.87,3.62,4.6,6.18,8.42,6.57a17,17,0,0,0,10.8-3.14,26,26,0,0,0,11.34-17.65c.34-2.33.47-4.4-1.88-6.74a22.29,22.29,0,0,0-8.92-5.31c-5.08-1.83-11,.81-12.42,3.85" class="cls-17"></path><path d="M830.51,489.92a10.29,10.29,0,0,0-9.15,7.88,1.21,1.21,0,0,0,.06.9c.3.49,1.06.41,1.59.17a2.61,2.61,0,0,1,1.66-.44c.92.24,1,1.47,1.29,2.35.6,1.6,2.54,2.3,4.28,2.58a9.39,9.39,0,0,0,5.18-.39c1.08-.47,2-1.25,3.12-1.64s2.62-.23,3.16.8c.69,1.28-.55,2.9,0,4.25a2.72,2.72,0,0,0,2.44,1.45,5.34,5.34,0,0,0,4.62-2.53,7.39,7.39,0,0,0,.87-5.21A10,10,0,0,0,847.1,495c-3.11-3.36-8.07-4.32-12.66-5.09-1.81-.3-3.83-.56-3.93,0" class="cls-27"></path><path d="M835.06,490.14l-13-3.47a10.85,10.85,0,0,0-3.65-.54A7.22,7.22,0,0,0,814,488.4a10,10,0,0,0-2.32,10.29c.87,2.38,3.15,4.63,5.85,4.41s4.59-2.89,7.12-4.05a2,2,0,0,1,1.73-.13,3.5,3.5,0,0,1,.74.7,3.51,3.51,0,0,0,3.13.85,5.88,5.88,0,0,0,2.89-1.6,8.08,8.08,0,0,0,1.93-8.73" class="cls-27"></path><path d="M840.45,499.81a17,17,0,0,1-.53,8.35,4.27,4.27,0,0,0-.26,1.11,3.69,3.69,0,0,0,.22,1.27q.86,2.87,1.7,5.73c3.48-1.68,6.36-5.59,7.92-12.71.27-1.26,0-1.45-.54-2.59-1-1.87-3.4-2.37-5.51-2.51a4.13,4.13,0,0,0-2,.23c-.63.29-1.1,1-1,1.12" class="cls-27"></path><path d="M839.74,509.77a4.8,4.8,0,0,1,4.89-1.76c3.16.77.07,6.64-5.31,7.4a2,2,0,0,1-2-.62,2,2,0,0,1,.11-1.73c.63-1.52,1.57-2.93,2.35-3.29" class="cls-17"></path><path d="M275.25,927.82c0,8.78-27.18,15.89-60.7,15.89s-60.7-7.11-60.7-15.89,27.18-15.88,60.7-15.88S275.25,919.05,275.25,927.82Z" class="cls-16"></path><path d="M225.9,506.3a11.82,11.82,0,0,0-15-.09c-5.71,4.91-5.7,14.49-11.77,18.93-7.06,5.15-16.74.16-25.46-.52a22.65,22.65,0,0,0-16.87,5.55,18.91,18.91,0,0,0-6.07,16.42c.86,5.66,4.53,11.17,3,16.69-.59,2.14-1.91,4-2.79,6a15.74,15.74,0,0,0,23.31,19.26c2.75-1.86,5-4.63,8.15-5.65,3.62-1.18,7.52.22,11.32.51,8,.61,16-4.07,20.33-10.83s5.47-15.28,4.22-23.23c-.55-3.52-1.46-7.42.47-10.42s5.89-3.88,8-6.64c5.6-7.19-5.25-19-.91-26" class="cls-27"></path><path d="M171.76,915.35c4.71,7.39,15.19,8.51,21.15,14.87a3.83,3.83,0,0,1,1,1.54,2.85,2.85,0,0,1-1.94,3.13,7.69,7.69,0,0,1-3.93,0l-22.14-3.66a6.35,6.35,0,0,1-2.31-.71c-1.5-.93-2-2.91-2.3-4.68-1-5.32-.5-9.78-1.51-15.1,4.93.76,7.25,2.47,12,4.58" class="cls-28"></path><path d="M193.92,931.76a3.83,3.83,0,0,0-1-1.54c-2.37-2.54-5.47-4.24-8.63-5.84-1.37,2-4.05,2.68-6.6,2.56-1.74-.08-3.46-.32-5.2-.51a20.21,20.21,0,0,1-5.1-1.11,17.68,17.68,0,0,1-6.68-4.39,44.57,44.57,0,0,0,.6,4.94c.34,1.77.8,3.75,2.3,4.68a6.35,6.35,0,0,0,2.31.71l22.14,3.66a7.65,7.65,0,0,0,3.92,0,2.84,2.84,0,0,0,1.95-3.13" class="cls-19"></path><path d="M194,633.08A295,295,0,0,0,168.39,763c.23,6.9.7,13.85-.53,20.64-1.17,6.44-3.83,12.51-6,18.69-12.68,36.38-7.9,76.33-1.06,114.24,5.49-.2,5.43-.39,10.93-.59.83-44.87,22-88,30.66-132,2.94-15,5.08-30.1,7.21-45.21q6.78-48.06,13.57-96.13c-9.88-2.21-19.76-4.42-29.19-9.56" class="cls-17"></path><path d="M166.79,807.61A59.28,59.28,0,0,1,181,802a24,24,0,0,1,6.79-.89,32.82,32.82,0,0,1,6.08.83,27,27,0,0,1,4.1,1.28c1.69-6.38,3.22-12.78,4.48-19.19,2.94-15,5.08-30.1,7.21-45.21q6.78-48.06,13.57-96.13c-9.88-2.21-19.76-4.42-29.19-9.56A295,295,0,0,0,168.39,763c.23,6.9.7,13.85-.53,20.64-1.17,6.44-3.83,12.51-6,18.69-1.38,3.95-2.54,7.94-3.52,12a35.2,35.2,0,0,1,8.43-6.71" class="cls-26"></path><path d="M249,903.06c4.53,7.31,14.64,8.42,20.39,14.71a3.62,3.62,0,0,1,1,1.53,2.82,2.82,0,0,1-1.87,3.1,7.45,7.45,0,0,1-3.78,0l-21.34-3.62a6.18,6.18,0,0,1-2.23-.7c-1.44-.93-1.89-2.88-2.21-4.63-1-5.27-.49-9.69-1.46-15,4.75.75,7,2.44,11.54,4.54" class="cls-28"></path><path d="M270.33,919.3a3.72,3.72,0,0,0-1-1.54,29.07,29.07,0,0,0-8.32-5.76c-1.33,1.93-3.91,2.65-6.37,2.53-1.67-.08-3.34-.32-5-.51a18.86,18.86,0,0,1-4.92-1.1,17,17,0,0,1-6.44-4.34,43.83,43.83,0,0,0,.58,4.89c.32,1.75.77,3.7,2.21,4.63a6.18,6.18,0,0,0,2.23.7l21.34,3.62a7.45,7.45,0,0,0,3.78,0,2.82,2.82,0,0,0,1.87-3.1" class="cls-19"></path><path d="M210.56,648.27a225.55,225.55,0,0,0,11.79,119.26c2,5.26,4.29,10.52,5,16.11.65,4.87.11,9.8-.26,14.69-1.78,23.66,1.13,46,4.14,69.54,1.69,13.16,5.12,21.4,7,36.26,3.63-.56,12.07-.26,11.52.1,1.79-14,13.13-102.22,6.23-158.17a843.26,843.26,0,0,0-17.65-95.62,5.79,5.79,0,0,0-1.63-3.3c-1.12-.89-2.71-.8-4.14-.68-8.24.72-16.49,1.45-22.05,1.81" class="cls-17"></path><path d="M227.37,783.64c.65,4.87.11,9.8-.26,14.69-.07,1-.13,2-.19,3,.86-.65,1.73-1.29,2.64-1.86a39.1,39.1,0,0,1,3.58-2,40.55,40.55,0,0,1,10.52-3.91,42.93,42.93,0,0,1,14.56-.57c.13-16.57-.44-32.79-2.19-47a843.26,843.26,0,0,0-17.65-95.62,5.79,5.79,0,0,0-1.63-3.3c-1.12-.89-2.71-.8-4.14-.68-8.24.72-16.49,1.45-22.05,1.81a225.55,225.55,0,0,0,11.79,119.26c2,5.26,4.29,10.52,5,16.11" class="cls-26"></path><path d="M245.73,582c5,17.08,11.43,45.07,18.3,55a44.64,44.64,0,0,0,12.9,12.21c13.63,8.64,24.22,6.85,39,12,.07-5,0-1.92,1.47-6.53-12.63-6.87-47.43-19.94-49.18-54-1.38-26.87-4.09-28.22-9.82-42.64-1.24-3.14-5.17-9.17-8-10.19s-13.53,3.92-4.69,34.22" class="cls-17"></path><path d="M307,656.58c3.07,2.76,6.18,5.54,9.73,7.37,1.13.58,2.51,1.61,3.58.9.06-1.06-.45-.8-1.92-1.71-.81-.5-2-1.07-2.4-2A16,16,0,0,0,326,663.46a1.9,1.9,0,0,0-1.19-1.5,6.72,6.72,0,0,0-1.83-.34,8.58,8.58,0,0,1-4.38-2c2.91,1.1,6.11,2.18,8.95.86a1.36,1.36,0,0,0-.78-1.3,3.77,3.77,0,0,0-1.46-.24,10.87,10.87,0,0,1-5.26-1.7,14.94,14.94,0,0,0,8.12.18c0-1-1.18-1.34-2.07-1.41a12.8,12.8,0,0,1-6.3-2.06c-.26-.18-1.72-1-1.69-1.29s2.55-1.78,3.36-2.54a2.3,2.3,0,0,0,.59-2.76c-4.44,2.33-9.38,4.7-14,3a48.4,48.4,0,0,1-1.11,6.17" class="cls-17"></path><path d="M250.64,545.35a19.66,19.66,0,0,0-9.38,9.82,30.72,30.72,0,0,0-2,8.09,73.31,73.31,0,0,0,5,37.67,109.45,109.45,0,0,0,23.86-6.36,2.39,2.39,0,0,0,1.43-1.07,2.34,2.34,0,0,0,0-1.41,237.93,237.93,0,0,0-12.85-39.59c-1.07-2.52-2.25-5.12-4.37-6.84-.87-.71-2.82-.49-1.68-.31" class="cls-5"></path><path d="M218.18,536.81c-9.14.18-19.33.81-25.56,7.48s-6.14,17-5.67,26.2c1.17,23.26,1.54,48.13-10.82,67.89a111.34,111.34,0,0,0,77.46,4.15c-2.38-16-4.28-32.45-.65-48.2,3.27-14.17,10.8-29.48,3.92-42.29-3.71-6.9-11.05-11.28-18.66-13.21s-15.57-1.72-20-2" class="cls-10"></path><path d="M219.72,584.72l-.17-.47a42.87,42.87,0,0,0,26.38-28.7l.48.13A43.37,43.37,0,0,1,219.72,584.72Z" class="cls-23"></path><path d="M234.34,587.93l-.29-.41a39.59,39.59,0,0,0,13.37-16.68l.46.19A40.12,40.12,0,0,1,234.34,587.93Z" class="cls-23"></path><path d="M184.92,626.49c-27.68,44.38-34.78,98.88-41.18,151.36a6.26,6.26,0,0,0,.4,4,5.55,5.55,0,0,0,2.57,1.92c38.56,18.16,83.52,11.57,124.58.56,1.36-.36,2.91-.92,3.36-2.3a4.45,4.45,0,0,0,0-2q-2.65-21.37-5.3-42.75c-1.72-13.86-3.44-27.73-5.73-41.5a505.34,505.34,0,0,0-14-60.94,10.07,10.07,0,0,0-2.18-4.44c-2.25-2.21-5.82-1.62-8.87-1a110.52,110.52,0,0,1-53.65-2.93" class="cls-29"></path><path d="M236.93,526.91a38,38,0,0,0,1.18,16.43c-3.91,2.21-8.78,1.4-13.11.22a23.52,23.52,0,0,1-6.17-2.42,1.47,1.47,0,0,1-.54-.51.94.94,0,0,1,0-.75c3.42-8.85,4.11-17.48,3.55-28.48,4.13,2.07,9.32.86,13.55,2.73a2.86,2.86,0,0,1,1.1.74,3,3,0,0,1,.51,1.53,39.48,39.48,0,0,1,0,10.51" class="cls-17"></path><path d="M224.73,526.71c-2.53-5.12-1.49-11-2.67-16.41,4.13,2.06,9.05,2,13.28,3.83a2.86,2.86,0,0,1,1.1.74,3,3,0,0,1,.51,1.53,39.48,39.48,0,0,1,0,10.51,38,38,0,0,0-.22,9.17,18.13,18.13,0,0,1-12-9.37" class="cls-26"></path><path d="M246,502.65c.53,3.47,1.08,6.54,1.46,10,.53,4.76,1.52,8.46-.82,12.64a10.11,10.11,0,0,1-10.12,5.4,14.41,14.41,0,0,1-9.56-5.5,27.36,27.36,0,0,1-5.93-20.94c.35-2.44.82-4.55,3.78-6.23a22.27,22.27,0,0,1,10.22-2.79c5.47-.4,10.43,3.93,11,7.39" class="cls-17"></path><path d="M248.17,491.31c4.45,3.32,6.18,6.7,3.61,10-1.69,2.2-3.65.42-4.35.41-1,0-1.37,1.2-2,2-1,1.44-3.13,1.59-4.91,1.37a9.23,9.23,0,0,1-4.91-1.85c-.92-.79-1.59-1.84-2.57-2.55s-2.48-1-3.31-.09c-1,1.09-.3,3.07-1.21,4.27a2.69,2.69,0,0,1-2.79.76,5.38,5.38,0,0,1-3.76-3.84,7.94,7.94,0,0,1,.66-5.49,10.54,10.54,0,0,1,3.91-4.38c4-2.49,7.61.32,11.72-2,3.44-1.93,9.39,1,9.86,1.35" class="cls-27"></path><path d="M227.5,498.9a18.4,18.4,0,0,0-1.91,8.53,4.73,4.73,0,0,1-.06,1.19,4.25,4.25,0,0,1-.59,1.21l-3.31,5.27c-2.9-2.67-6.82-6.33-4.74-13.09a13.68,13.68,0,0,1,2-4.37c4.27-4.72,7.48-.62,8-.14s.78,1.33.61,1.4" class="cls-27"></path><path d="M223.47,512.25a4.81,4.81,0,0,0-5.19-1c-3,1.3,1.06,6.86,6.58,6.78.77,0,1.67-.24,1.93-1a2.13,2.13,0,0,0-.4-1.75c-.9-1.47-2.07-2.77-2.92-3" class="cls-17"></path><path d="M551.28,654.4H530.19l-8.39-21.81H483.42L475.5,654.4H454.93l37.4-96h20.5Zm-35.7-38-13.23-35.63-13,35.63Z" class="cls-30"></path><path d="M561,654.4v-96h19.39v96Z" class="cls-30"></path><rect height="157.87" width="161.92" y="218.15" x="820.24" class="cls-10"></rect><rect height="19.61" width="161.87" y="218.15" x="820.24" class="cls-9"></rect><path d="M833.85,226.32a3,3,0,1,1-3-3A3,3,0,0,1,833.85,226.32Z" class="cls-10"></path><path d="M847.85,226.32a3,3,0,1,1-3-3A3,3,0,0,1,847.85,226.32Z" class="cls-10"></path><path d="M861.84,226.32a3,3,0,1,1-3-3A3,3,0,0,1,861.84,226.32Z" class="cls-10"></path><rect height="5.64" width="82.22" y="256.99" x="883.98" class="cls-31"></rect><rect height="5.64" width="82.22" y="268.9" x="883.98" class="cls-31"></rect><rect height="5.64" width="53.41" y="282.05" x="883.98" class="cls-32"></rect><rect height="5.64" width="80.97" y="302.73" x="883.98" class="cls-31"></rect><rect height="5.64" width="80.97" y="315.26" x="883.98" class="cls-32"></rect><rect height="5.64" width="80.97" y="330.29" x="883.98" class="cls-31"></rect><rect height="5.64" width="80.97" y="347.83" x="883.98" class="cls-32"></rect><rect height="5.64" width="22.4" y="285.81" x="849.84" class="cls-31"></rect><rect height="5.64" width="22.4" y="268.9" x="849.84" class="cls-32"></rect><rect height="5.64" width="43.7" y="256.99" x="828.54" class="cls-31"></rect><rect height="5.64" width="39.23" y="298.34" x="833" class="cls-32"></rect><rect height="5.64" width="17.93" y="312.75" x="854.31" class="cls-31"></rect><rect height="5.64" width="30.89" y="327.16" x="841.34" class="cls-32"></rect><rect height="5.64" width="24.63" y="350.97" x="847.61" class="cls-31"></rect><g class="cls-20"><path d="M956.73,357.64c-20.55-8.38-38.61-21.18-55.62-35.29-31.43-26.08-58.71-62.08-60.55-104.2H820.24V376H982.16V365.22A147.66,147.66,0,0,1,956.73,357.64Z" class="cls-16"></path></g><path d="M281.13,684.5a50.62,50.62,0,1,0-83.36,0s3.35,4.2,4.71,5.81c13.65,16.28,15.2,30.88,18.43,47.29H258c3.24-16.41,4.79-31,18.44-47.29C277.78,688.7,281.18,684.5,281.13,684.5Z" class="cls-18"></path><polygon points="246.32 768.36 232.58 768.36 223.49 762.5 255.4 762.5 246.32 768.36" class="cls-4"></polygon><polygon points="255.4 742.51 223.49 742.51 220.91 737.6 257.99 737.6 255.4 742.51" class="cls-33"></polygon><rect height="19.99" width="31.9" y="742.51" x="223.49" class="cls-4"></rect><path d="M222.92,746.9c5.59-.76,11.21-1.19,16.85-1.5s11.3-.48,17-.28c.72,0,1.27.51,1.23,1.06a1.16,1.16,0,0,1-1.06.94c-5.59.82-11.22,1.22-16.86,1.52s-11.28.43-17,.26c-.73,0-1.28-.49-1.25-1A1.12,1.12,0,0,1,222.92,746.9Z" class="cls-34"></path><path d="M222.45,752.38c5.6-.76,11.22-1.18,16.86-1.51s11.28-.47,17-.26c.72,0,1.27.5,1.23,1.06a1.12,1.12,0,0,1-1.06.93c-5.59.81-11.22,1.22-16.86,1.51s-11.28.44-17,.27c-.73,0-1.28-.49-1.25-1A1.13,1.13,0,0,1,222.45,752.38Z" class="cls-34"></path><path d="M222,757.86c5.59-.76,11.21-1.18,16.85-1.5s11.29-.48,17-.27a1.17,1.17,0,0,1,1.24,1.07,1.14,1.14,0,0,1-1.06.93c-5.59.81-11.23,1.21-16.87,1.51s-11.28.44-17,.26c-.73,0-1.28-.49-1.25-1A1.16,1.16,0,0,1,222,757.86Z" class="cls-34"></path><path d="M239.34,596.59a4.71,4.71,0,0,1-4.71-4.71V566.53a4.71,4.71,0,0,1,9.42,0v25.35A4.71,4.71,0,0,1,239.34,596.59Z" class="cls-35"></path><path d="M194.51,614.14a4.69,4.69,0,0,1-3.33-1.38l-17.93-17.93a4.71,4.71,0,1,1,6.66-6.66l17.93,17.93a4.71,4.71,0,0,1-3.33,8Z" class="cls-35"></path><path d="M149.86,658.25a4.71,4.71,0,1,1,0-9.41h25.36a4.71,4.71,0,1,1,0,9.42Z" class="cls-35"></path><path d="M174.84,721a4.71,4.71,0,0,1-3.33-8L189.44,695a4.71,4.71,0,0,1,6.66,6.66l-17.93,17.93A4.7,4.7,0,0,1,174.84,721Z" class="cls-35"></path><path d="M299.64,722.76a4.7,4.7,0,0,1-3.33-1.38l-17.93-17.93a4.71,4.71,0,0,1,6.66-6.66L303,714.72a4.71,4.71,0,0,1-3.33,8Z" class="cls-35"></path><path d="M301,660.71a4.71,4.71,0,1,1,0-9.41h25.36a4.71,4.71,0,0,1,0,9.42Z" class="cls-35"></path><path d="M283.46,615.88a4.71,4.71,0,0,1-3.34-8l17.93-17.93a4.71,4.71,0,1,1,6.66,6.65l-17.92,17.94A4.73,4.73,0,0,1,283.46,615.88Z" class="cls-35"></path><path d="M173.84,574.87c-5,15.6-14.68,40.12-14,51.55a43.18,43.18,0,0,0,4.69,16.85c7.29,14.65,17.64,19.78,27.9,32.55,2.79-3.6,1.07-1.4,4.88-3.91-7.38-12.74-31-43.55-13.78-69.64,13.56-20.61,11.9-23.25,14.77-37.35.63-3.06.47-9.89-1.46-12.36s-14.11-5.35-23,22.31" class="cls-17"></path><path d="M191.83,674.46a52.86,52.86,0,0,0,4.84,11.7c.7,1.15,1.4,2.79,2.74,2.9.61-.8,0-.91-.82-2.51-.46-.89-1.22-2-1.09-3a19.54,19.54,0,0,0,7.82,8,1.84,1.84,0,0,0-.27-1.9,8.82,8.82,0,0,0-1.47-1.39A10,10,0,0,1,200.7,684c2,2.64,4.34,5.44,7.59,6.16a1.28,1.28,0,0,0,0-1.5,5.06,5.06,0,0,0-1.18-1.08,13.25,13.25,0,0,1-3.83-4.55,18.69,18.69,0,0,0,7.2,5.12c.57-.78-.35-1.77-1.11-2.37a15.41,15.41,0,0,1-4.57-5.46c-.13-.3-1-1.79-.83-2s3.24.17,4.36.08,2.1-.81,2-1.79c-5.22-.91-10.93-2.08-14.21-6.23a39.69,39.69,0,0,1-4.28,4.13" class="cls-17"></path><path d="M201.29,540.29a19.65,19.65,0,0,0-12.89,4.28,30.7,30.7,0,0,0-5.55,6.21,73.25,73.25,0,0,0-13.24,35.62,109.11,109.11,0,0,0,24,5.57,2.33,2.33,0,0,0,1.77-.28,2.28,2.28,0,0,0,.64-1.25,238.51,238.51,0,0,0,7.21-41c.24-2.72.41-5.57-.66-8.09-.43-1-2.25-1.75-1.33-1.06" class="cls-5"></path></g></g></svg>