<svg xml:space="preserve" style="enable-background:new 0 0 1024 1024;" viewBox="0 0 1024 1024" y="0px" x="0px" xmlns:xlink="http://www.w3.org/1999/xlink" xmlns="http://www.w3.org/2000/svg" id="图层_1" version="1.1">
<style type="text/css">
	.st0{fill:#8A9EDD;}
	.st1{fill:#667ECC;}
	.st2{fill:#FFB31A;}
	.st3{fill:#7689D6;}
	.st4{fill:#677CC1;}
	.st5{fill:#FFFFFF;}
	.st6{fill:#F0F8FF;}
	.st7{fill:#47B0AA;}
	.st8{fill:#59D1BA;}
	.st9{fill:#D7E4F9;}
	.st10{fill:#83ABDB;}
	.st11{fill:#B3D0FF;}
	.st12{fill:#EBF3FF;}
	.st13{fill:#D6E6F2;}
	.st14{fill:#D7E7FF;}
	.st15{fill:#4F69B2;}
	.st16{fill:#F8FDFF;}
	.st17{fill:#1D3F70;}
	.st18{fill:#FFDE00;}
	.st19{fill:#163260;}
	.st20{fill:#234270;}
	.st21{fill:#0B274F;}
	.st22{fill:#FDC8AA;}
	.st23{fill:#8896A8;}
	.st24{fill:#EFA37D;}
	.st25{fill:#072542;}
	.st26{fill:#F24664;}
	.st27{fill:#2FF434;}
	.st28{fill:#1F3A6F;}
</style>
<path d="M742.8,202.6l6.1-27.1l15.6,3.5c2.3-4.5,5.2-8.7,8.6-12.4l-8.6-13.6l23.5-14.9l8.3,13.1c5.6-2,11.4-3,17.3-3.2
	l3.6-16l27.1,6.1l-3.6,16c4.9,2.5,9.4,5.7,13.3,9.5l12.4-7.8l14.8,23.5l-12.4,7.8c1.7,5.2,2.6,10.6,2.8,16.1l15.6,3.5l-6.1,27.1
	l-15.6-3.5c-2.7,5.3-6.2,10.1-10.3,14.2l8.3,13.1l-23.5,14.8l-8.6-13.6c-4.8,1.5-9.9,2.3-14.9,2.4l-3.6,16l-27.1-6.1l3.6-16
	c-4.9-2.5-9.3-5.7-13.3-9.4l-14.4,9.1l-14.9-23.5l14.4-9.1c-1.7-5.2-2.6-10.6-2.8-16.1L742.8,202.6z M807.8,229
	c32,9.3,46.2-39.1,14.4-48.7C790.2,171.1,776,219.4,807.8,229L807.8,229z" class="st0"></path>
<path d="M856.6,324.5l1.5-6.7l5.9,1.3c1.4-4.5,3.7-8.8,6.6-12.5l-4.5-4.1l4.7-5.1l4.5,4.1c3.5-3.2,7.6-5.8,12-7.6
	l-1.8-5.8l6.6-2l1.8,5.8c4.7-1,9.4-1.2,14.2-0.5l1.3-5.9l6.7,1.5l-1.3,5.9c4.5,1.4,8.8,3.7,12.5,6.6l4.1-4.5l5,4.7l-4.1,4.5
	c3.2,3.5,5.8,7.6,7.6,12l5.8-1.8l2,6.6l-5.8,1.8c1,4.7,1.2,9.5,0.5,14.2l5.9,1.3l-1.5,6.6l-5.9-1.3c-1.4,4.5-3.7,8.8-6.6,12.5
	l4.5,4.1l-4.7,5.1l-4.5-4.1c-3.5,3.2-7.6,5.8-12,7.6l1.8,5.8l-6.6,2l-1.8-5.8c-4.7,1-9.4,1.2-14.2,0.5l-1.3,5.9l-6.7-1.5l1.3-5.9
	c-4.5-1.4-8.8-3.7-12.5-6.6l-4.1,4.5l-5-4.7l4.1-4.5c-3.2-3.5-5.8-7.6-7.6-12l-5.8,1.8l-2-6.6l5.8-1.8c-1-4.6-1.2-9.4-0.5-14.2
	L856.6,324.5z M896.7,357c33.8,7,45.1-43,11.6-51.2C874.5,298.8,863.2,348.8,896.7,357z" class="st1"></path>
<path d="M663,181l2.3-10.2l7.8,1.8c0.6-1.5,1.4-3,2.3-4.3l-5.9-5.4l7.1-7.6l5.9,5.4c1.3-1,2.7-1.9,4.1-2.6l-2.4-7.6
	l10-3.1l2.4,7.6c1.6-0.2,3.3-0.3,4.9-0.2l1.8-7.8l10.2,2.3l-1.8,7.8c1.5,0.6,3,1.4,4.3,2.3l5.4-5.9l7.7,7.1l-5.4,5.9
	c1,1.3,1.9,2.7,2.6,4.1l7.6-2.4l3.1,9.9l-7.6,2.4c0.2,1.6,0.3,3.3,0.2,4.9l7.8,1.8l-2.3,10.2l-7.8-1.8c-0.6,1.5-1.4,3-2.3,4.3
	l5.8,5.4l-7.1,7.7l-5.9-5.4c-1.3,1-2.7,1.9-4.2,2.6l2.4,7.6l-10,3.1l-2.4-7.6c-1.6,0.2-3.3,0.3-4.9,0.2l-1.8,7.8l-10.2-2.3l1.8-7.8
	c-1.5-0.6-3-1.4-4.3-2.3l-5.4,5.9l-7.7-7.1l5.4-5.9c-1-1.3-1.9-2.7-2.6-4.1l-7.6,2.3l-3.1-9.9l7.6-2.4c-0.2-1.6-0.3-3.3-0.2-4.9
	L663,181z M696.9,198.4c18.9,3.9,25.2-24.1,6.5-28.7C684.5,165.8,678.2,193.8,696.9,198.4L696.9,198.4z" class="st2"></path>
<path d="M336.6,98.8h120.3c8.3,0,15.1,6.8,15.1,15.1V164c0,8.3-6.8,15.1-15.1,15.1H336.6c-8.3,0-15.1-6.8-15.1-15.1
	v-50.2C321.6,105.5,328.3,98.8,336.6,98.8z" class="st3"></path>
<path d="M472,164c0,8.3-6.8,15.1-15.1,15.1h-6.2v21.5l-29.1-21.5h-85.1c-8.3,0-15.1-6.7-15.1-15.1v-50.2
	C378.4,170.6,472,164,472,164z" class="st4"></path>
<path d="M376.7,123.3h80.1c2.3,0,4.2-1.9,4.2-4.2s-1.9-4.2-4.2-4.2h-80.1C371.2,114.9,371.2,123.2,376.7,123.3z" class="st5"></path>
<path d="M424.5,143.1h32.3c5.5,0,5.5-8.3,0-8.4h-32.3C419,134.8,419,143.1,424.5,143.1z" class="st5"></path>
<path d="M336.8,143.1H405c2.3,0,4.2-1.9,4.2-4.2c0-2.3-1.9-4.2-4.2-4.2l0,0h-68.2C331.4,134.8,331.3,143.1,336.8,143.1z" class="st5"></path>
<path d="M390.7,162.9h66.1c5.4,0,5.5-8.3,0-8.4h-66.1C385.3,154.6,385.2,162.9,390.7,162.9z" class="st5"></path>
<path d="M343.7,98.8c101.4,0,125,16.9,128.3,19.9c1.2-10-4.1-19.8-15.1-19.9H343.7z" class="st0"></path>
<path d="M757.8,881.6c0,0,126.9-555-139.8-591.3c-372.4-50.7-291.6,236.2-291.6,236.2s-97.4-57.7-189.7,4.6
	C8.6,617.4,213,881.1,213,881.1L757.8,881.6z" class="st6"></path>
<path d="M757.8,881.6c0,0,288.1-236.9,218.2-330c-81.1-108.1-215.4,0-215.4,0L757.8,881.6z" class="st6"></path>
<path d="M812.1,868c0,0,134.7-139.8,91.2-192.8c-8.6-10.2-23-13.3-35-7.6c-16.2,7.9-39.1,30-56.2,90.3
	c0,0,75.8-161.6,17.1-170.9c0,0-61.7-17.5-70.9,144.7c0,0,7.3-115.6-44-122.6c0,0-114.9-34.5-9.8,261.8L812.1,868z" class="st7"></path>
<path d="M791,869.5c0,0,76.7-79.6,36.6-98.6c0,0-22.4-4.4-36.6,45.5c0,0,36.6-77.9,8.2-82.4c0,0-27.1-21-34.2,69.8
	c0,0,3.5-55.8-21.2-59.1c0,0-55.4-16.6-4.7,126.2L791,869.5z" class="st8"></path>
<path d="M65.6,873.9c0,12.4,199.9,22.4,446.4,22.4s446.4-10,446.4-22.4S758.6,851.5,512,851.5S65.6,861.5,65.6,873.9z" class="st9"></path>
<path d="M300.6,828.8c0.1,19.2,15.8,34.8,35,34.7H721c19.3,0.1,34.9-15.5,35-34.7V299.2c-0.1-19.2-15.8-34.8-35-34.7
	H335.7c-19.2-0.1-34.9,15.5-35,34.7L300.6,828.8z" class="st10"></path>
<path d="M282.2,828.8c0.1,19.2,15.8,34.8,35,34.7h385.3c19.3,0.1,34.9-15.5,35-34.7c0,0,0,0,0,0V299.2
	c-0.1-19.2-15.8-34.8-35-34.7c0,0,0,0,0,0H317.3c-19.2-0.1-34.9,15.5-35,34.7L282.2,828.8z" class="st11"></path>
<path d="M322.1,751.8c0,18.6,15.1,33.7,33.7,33.8h290.6c18.6,0,33.7-15.1,33.7-33.8l0,0V351.7
	c0-18.6-15.1-33.7-33.7-33.7H355.8c-18.6,0-33.7,15.1-33.7,33.8V751.8z" class="st12"></path>
<path d="M431.2,291.8c0,2.6,2.1,4.6,4.7,4.6h165.8c2.6,0,4.6-2.1,4.6-4.6c0,0,0,0,0,0l0,0c0-2.5-2.1-4.6-4.6-4.6
	c0,0,0,0,0,0H435.9C433.3,287.2,431.2,289.3,431.2,291.8C431.2,291.8,431.2,291.8,431.2,291.8z" class="st10"></path>
<path d="M493,833.1h25c5.9,0,10.7-4.8,10.7-10.7l0,0c0-5.9-4.8-10.7-10.7-10.7h-25c-5.9,0-10.7,4.8-10.7,10.7l0,0
	C482.4,828.3,487.2,833,493,833.1z" class="st10"></path>
<polygon points="235,252.6 266.1,293.2 259.5,246" class="st13"></polygon>
<path d="M124.3,255.5h133.1c12.9,0,23.8-9.5,25.5-22.3l5.5-41.1c1.9-14.1-8-27-22.1-28.9c-1.1-0.1-2.3-0.2-3.4-0.2
	h-144c-14.2,0-25.7,11.5-25.7,25.7c0,1.1,0.1,2.3,0.2,3.4l5.5,41.1C100.5,246,111.4,255.5,124.3,255.5z" class="st13"></path>
<path d="M211.4,209.3c0,4.9,4,8.9,8.9,8.9c4.9,0,8.9-4,8.9-8.9c0-4.9-4-8.9-8.9-8.9
	C215.4,200.4,211.4,204.4,211.4,209.3C211.4,209.3,211.4,209.3,211.4,209.3z" class="st6"></path>
<circle r="8.9" cy="209.3" cx="190.8" class="st6"></circle>
<path d="M152.4,209.3c0,4.9,4,8.9,8.9,8.9c4.9,0,8.9-4,8.9-8.9c0-4.9-4-8.9-8.9-8.9
	C156.4,200.4,152.4,204.4,152.4,209.3C152.4,209.3,152.4,209.3,152.4,209.3z" class="st6"></path>
<path d="M738.9,464.6c0-63.5-49.2-124.3-109.9-124.3c-30.9,0-58.8,13.3-78.7,34.7c-18.3-6.8-37.6-10.3-57.1-10.3
	c-93.9,0-170.1,89-170.1,187.3s76.1,177.8,170.1,177.8c86.7,0,158.3-67.8,168.8-155.5C706.6,559.6,738.9,516,738.9,464.6z" class="st14"></path>
<path d="M483.5,575.4v86.2c0,2.8,0.5,5.6,1.6,8.2h77.3c1.1-2.6,1.6-5.4,1.6-8.2v-86.2c0-10.9-8-19.8-17.8-19.8h-45
	C491.5,555.6,483.5,564.5,483.5,575.4z" class="st15"></path>
<path d="M408.8,659.9c4.3,0,8.2-2.3,10.3-6L478.7,551c3.3-5.7,1.4-13-4.3-16.3s-13-1.4-16.3,4.3l-59.6,103
	c-3.3,5.7-1.3,13,4.4,16.3C404.6,659.3,406.7,659.9,408.8,659.9L408.8,659.9z" class="st16"></path>
<path d="M450,545c0.1,24,36.7,24,36.8,0C486.6,521,450.1,521,450,545z" class="st17"></path>
<rect height="26.6" width="4.4" class="st16" y="396.9" x="521.6"></rect>
<path d="M535.1,426.1c-0.2-2.6,1-8.4-3.2-8.3h-16.4c-1.7,0-3.2,1.4-3.2,3.2c0.2,2.6-1,8.4,3.2,8.3H532
	C533.7,429.2,535.1,427.8,535.1,426.1z" class="st15"></path>
<path d="M579.1,491.7c3.4-0.1,10.6,1.2,10.5-4.2v-23.1c0.1-5.4-7.1-4.1-10.5-4.2c-2.3,0-4.2,1.9-4.2,4.2v23.1
	C574.8,489.8,576.7,491.7,579.1,491.7z" class="st15"></path>
<path d="M462.2,491.7c3.4-0.1,10.6,1.2,10.5-4.2v-23.1c0.1-5.4-7.1-4.1-10.5-4.2c-2.3,0-4.2,1.9-4.2,4.2v23.1
	C458,489.8,459.9,491.7,462.2,491.7z" class="st15"></path>
<path d="M541.1,436.2c-0.2-4,1.6-12.7-4.8-12.6h-24.9c-6.4-0.1-4.6,8.7-4.8,12.6c0,2.7,2.2,4.8,4.8,4.8h24.9
	C538.9,441,541.1,438.8,541.1,436.2z" class="st16"></path>
<path d="M527.7,502.3c-4,0.2-12.7-1.6-12.6,4.8V532c-0.1,6.4,8.7,4.6,12.6,4.8c2.7,0,4.8-2.2,4.8-4.8v-24.9
	C532.5,504.4,530.3,502.3,527.7,502.3z" class="st15"></path>
<path d="M490.3,519.5h67c13.7,0,24.9-11.2,24.9-24.9c-1.1-21.3,7.9-61.6-24.9-62.3h-67c-13.7,0-24.9,11.2-24.9,24.9
	C466.5,478.5,457.4,518.9,490.3,519.5z" class="st16"></path>
<path d="M496.7,505h54.1c9.2,0,16.6-7.5,16.6-16.6c-0.7-14.2,5.3-41.1-16.6-41.6h-54.1c-9.2,0-16.6,7.5-16.6,16.6
	C480.8,477.6,474.8,504.5,496.7,505z" class="st17"></path>
<path d="M515.5,396.9c0,10.8,16.5,10.8,16.5,0S515.5,386.1,515.5,396.9z" class="st15"></path>
<path d="M534.9,475.9c0,8.9,13.5,8.9,13.5,0S534.9,467.1,534.9,475.9z" class="st18"></path>
<path d="M499.1,475.9c0,8.9,13.5,8.9,13.5,0S499.2,467.1,499.1,475.9z" class="st18"></path>
<path d="M483.5,572.1v52.5H564v-52.5c0-9.1-8-16.5-17.8-16.5h-45C491.5,555.6,483.5,563,483.5,572.1z" class="st17"></path>
<path d="M458,571.8L458,571.8c0-22.2,18-40.3,40.3-40.3h51c22.2,0,40.3,18,40.3,40.3v0c0,22.2-18,40.3-40.3,40.3h-51
	C476,612.1,458,594,458,571.8z" class="st16"></path>
<path d="M567.7,539.6c0.1,24,36.7,24,36.8,0C604.3,515.6,567.8,515.6,567.7,539.6z" class="st17"></path>
<path d="M645.7,654.5c8.9,0.2,15-10.2,10.3-17.9l-59.6-102.9c-8-13.4-28.3-1.8-20.6,11.9l59.6,102.9
	C637.5,652.2,641.4,654.5,645.7,654.5z" class="st16"></path>
<path d="M627.3,642.6c0.1,24,36.7,24,36.8,0C663.9,618.5,627.4,618.5,627.3,642.6z" class="st17"></path>
<path d="M536.8,630.5h18.4l-3.9-4.2c-5.3-5.6,3.7-13.8,8.8-8l11.2,12.3l73.8,0.1c6.6-0.2,12.1,5,12.3,11.6
	c0.2,6.6-5,12.1-11.6,12.3c-0.2,0-0.5,0-0.7,0H536.7C521,654.2,521,630.7,536.8,630.5z" class="st16"></path>
<polygon points="320.9,647.8 454.9,647.8 428.2,549.5 295,549.5" class="st19"></polygon>
<rect height="6.7" width="134" class="st20" y="647.3" x="320.9"></rect>
<polygon points="426.2,549.5 431,549.5 457.1,647.3 520.8,647.3 520.8,654 452.7,654 452.7,648" class="st21"></polygon>
<polygon points="156.3,840.1 151.8,851.7 134.9,851.7 137,827.7" class="st22"></polygon>
<polygon points="205.6,840.1 210.1,860.6 227,860.6 224.9,836.5" class="st22"></polygon>
<polygon points="198.3,661.7 229.5,844 203.2,844 157.7,661.7" class="st23"></polygon>
<path d="M221.3,624.9c0,0-10.9,36.1-24.9,14.2l-8.1-29.4h33L221.3,624.9z" class="st22"></path>
<path d="M204.3,626.4c-0.9,1-1.6,2.2-2.2,3.4c-0.4,1.2-1.9-8.9-1.9-8.9L204.3,626.4z" class="st24"></path>
<polygon points="149.4,655.7 132.4,835.1 159,844 195.9,660.3" class="st23"></polygon>
<polygon points="188.3,696.8 191.6,797.6 178.7,745.8" class="st25"></polygon>
<path d="M125.8,622.5h23.8l-1.8,34.1l4.2-0.1l10.7,8.5l37.5-1.2c0,0,3.3-70.8-28.9-74.1l-23.5-7.4
	C147.8,582.2,123,586.9,125.8,622.5z" class="st26"></path>
<path d="M147.8,582.2c0,0,12.9,18.2,23.5,7.4c0,0-3.9-0.2-5-1.5c-0.1-0.1-0.2-0.3-0.3-0.5c-0.6-1.7-1-3.4-1.1-5.2
	l-13.4-15.6c0.1,1.4,0.2,2.9,0.1,4.3C151.5,575.2,150.8,580.7,147.8,582.2z" class="st22"></path>
<path d="M152.3,557.1c0,0-2-1.9-3.2-0.8s0.4,5.6,1.3,6.1s-0.5-3.5-0.3-3.9S150.8,556.6,152.3,557.1z" class="st27"></path>
<polygon points="177.2,626.4 225,626.4 239.9,575.6 192.1,575.6 181,613.6" class="st28"></polygon>
<path d="M152.7,847.1c-0.2-1.9-1.5-3.5-3.3-4.1c-1.8-0.6-3.6-0.8-5.4-0.8c-5.2,0.1-8.6,2.2-9.1,3.2s-2.6,8.8-8.6,14
	s-5.4,10.3-5.4,10.3h28.3C147,871.5,156.9,887.5,152.7,847.1z" class="st28"></path>
<path d="M209.2,856c0.2-1.9,1.5-3.5,3.3-4.1c1.8-0.6,3.6-0.8,5.4-0.8c5.2,0.1,8.6,2.2,9.1,3.2s2.6,8.8,8.6,13.9
	s5.4,10.3,5.4,10.3h-28.3C212.7,878.6,207.3,874.5,209.2,856z" class="st28"></path>
<path d="M151.6,571.2c8.2,10.6,12.6,18.1,14.4,16.4c-0.6-1.7-1-3.4-1.1-5.2l-13.4-15.6
	C151.6,568.3,151.6,569.8,151.6,571.2z" class="st24"></path>
<path d="M171.3,554.4c0,0,8.1-0.7,3.1-11.1s-29.1-9.4-32.7-0.3s0.5,17.7,3.4,20.4s4.7,4.9,7.6,1.8
	S171.3,554.4,171.3,554.4z" class="st28"></path>
<path d="M152,656.5l10.7,8.5c9.3-11.3,16.2-24.4,20.1-38.5l-30.4,25.8L152,656.5z" class="st26"></path>
<path d="M172.3,553.7c0,0,8,31.1-6.4,30.2s-15.6-19.1-15.6-19.1s-4.8-3.3-3.7-8.8s6.9,9.1,6.9,9.1
	S147.4,552.4,172.3,553.7z" class="st22"></path>
<path d="M177.2,626.4h9.7c1.4-4.8,2.1-7.8,2.1-7.8s10.1-9.7,9.2-15.5c-0.8-5-6.8-6.5-9.6-5.5v16H181L177.2,626.4z" class="st25"></path>
<path d="M127.4,622.5c0,0,6.2,41.5,23.1,37.8s37.4-45.2,37.4-45.2s11.4-8.1,11.3-14s-7.9-8.2-9.9-6.2s-3.7,6.8-3.9,7.1
	c0.1-0.3,1.9-7-1.7-6.2s-0.8,8.4-2.6,11.6c-1.6,2.8-20.4,14.8-28.8,26.8l-0.6-3.1l-1.7-8.5L127.4,622.5z" class="st22"></path>
<path d="M149.2,639.4l3.2-5.3l-0.6-3.1C150.4,633.6,149.5,636.4,149.2,639.4z" class="st24"></path>
</svg>
